<svg width="58" height="68" viewBox="0 0 58 68" fill="none" xmlns="http://www.w3.org/2000/svg">
<circle cx="29" cy="34" r="28.5" fill="white" stroke="#2A2E49"/>
<path d="M22.4 45C21.92 45 21.56 44.7867 21.32 44.36C21.1067 43.9333 21.1333 43.5067 21.4 43.08L26.76 34.68C26.8933 34.4933 26.8933 34.3067 26.76 34.12L21.6 26.12C21.3333 25.6933 21.32 25.2667 21.56 24.84C21.8 24.4133 22.16 24.2 22.64 24.2H22.76C23.4533 24.2 24.1067 24.3867 24.72 24.76C25.3333 25.1067 25.8133 25.5733 26.16 26.16L29.36 31.76C29.36 31.7867 29.3867 31.8 29.44 31.8C29.4667 31.8 29.48 31.7867 29.48 31.76L32.72 26.16C33.0667 25.5467 33.5333 25.0667 34.12 24.72C34.7333 24.3733 35.3867 24.2 36.08 24.2C36.56 24.2 36.92 24.4133 37.16 24.84C37.4 25.2667 37.3867 25.68 37.12 26.08L31.96 34.12C31.8267 34.3067 31.8267 34.4933 31.96 34.68L37.32 43.08C37.5867 43.5067 37.6 43.9333 37.36 44.36C37.12 44.7867 36.76 45 36.28 45H36.16C35.4667 45 34.8133 44.8267 34.2 44.48C33.5867 44.1067 33.1067 43.6267 32.76 43.04L29.32 37.04C29.32 37.0133 29.3067 37 29.28 37C29.2267 37 29.2 37.0133 29.2 37.04L25.8 43.04C25.4533 43.6267 24.9733 44.1067 24.36 44.48C23.7467 44.8267 23.0933 45 22.4 45Z" fill="#2A2E49"/>
</svg>
